<?xml version="1.0" encoding="utf-8"?>
<!-- Generator: Adobe Illustrator 17.0.0, SVG Export Plug-In . SVG Version: 6.00 Build 0)  -->
<!DOCTYPE svg PUBLIC "-//W3C//DTD SVG 1.1//EN" "http://www.w3.org/Graphics/SVG/1.1/DTD/svg11.dtd">
<svg version="1.1" id="Layer_1" xmlns="http://www.w3.org/2000/svg" xmlns:xlink="http://www.w3.org/1999/xlink" x="0px" y="0px"
	 width="133.767px" height="38.625px" viewBox="0 0 133.767 38.625" enable-background="new 0 0 133.767 38.625"
	 xml:space="preserve">
<circle fill="#333333" cx="19.312" cy="19.313" r="19.312"/>
<polygon fill="#FFFFFF" points="22.972,2.889 8.082,22.328 16.768,22.328 "/>
<polygon fill="#FFFFFF" points="15.653,35.736 30.542,16.297 21.857,16.297 "/>
<g>
	<path fill="#333333" d="M48.323,25.294H51V12.605h-2.678v-1.592h13.727v5.283h-1.158c-1.013-3.088-1.423-3.691-3.281-3.691h-4.125
		v5.717h1.375c1.785,0,2.123-0.29,2.461-2.461H58.6v6.417h-1.278c-0.29-2.268-0.676-2.605-2.461-2.605h-1.375v5.621h2.943v1.593
		h-8.106V25.294z"/>
	<path fill="#333333" d="M62.823,24.16c0-0.771,0.241-1.447,0.82-2.026c0.893-0.893,2.099-1.183,4.101-1.472
		c1.423-0.217,1.688-0.241,1.688-0.675v-1.134c0-1.423-0.675-1.954-2.195-1.954c-0.724,0-1.278,0.145-1.857,0.458
		c0.41,0.193,0.7,0.675,0.7,1.182c0,0.724-0.507,1.351-1.399,1.351c-0.941,0-1.472-0.7-1.472-1.399c0-1.761,2.051-2.823,4.536-2.823
		c2.509,0,3.956,1.038,3.956,3.354v5.597c0,0.555,0.169,0.795,0.748,0.795c0.338,0,0.627-0.337,0.869-0.867l0.844,0.506
		c-0.579,1.352-1.399,1.906-2.485,1.906c-1.013,0-1.978-0.58-1.978-1.93h-0.121c-0.604,1.182-2.123,1.978-3.546,1.978
		C64.005,27.007,62.823,25.824,62.823,24.16z M69.433,23.244v-1.906c-0.217,0.096-0.482,0.145-1.085,0.241
		c-2.34,0.362-3.064,0.651-3.064,2.099c0,1.062,0.555,1.785,1.785,1.785C68.154,25.463,69.433,24.521,69.433,23.244z"/>
	<path fill="#333333" d="M74.451,25.294h1.762V17.43h-1.762v-1.592h3.98v2.557c0.555-1.857,2.002-2.702,3.257-2.702
		c1.23,0,1.931,0.844,1.931,1.881c0,0.844-0.628,1.568-1.448,1.568c-0.845,0-1.52-0.507-1.52-1.423c0-0.121,0.024-0.266,0.048-0.41
		c-1.086-0.048-1.833,1.182-2.219,2.629v5.355h2.098v1.593h-6.127V25.294z"/>
	<path fill="#333333" d="M84.367,24.16c0-0.771,0.241-1.447,0.82-2.026c0.893-0.893,2.099-1.183,4.102-1.472
		c1.423-0.217,1.688-0.241,1.688-0.675v-1.134c0-1.423-0.675-1.954-2.195-1.954c-0.723,0-1.277,0.145-1.857,0.458
		c0.41,0.193,0.7,0.675,0.7,1.182c0,0.724-0.507,1.351-1.399,1.351c-0.941,0-1.472-0.7-1.472-1.399c0-1.761,2.051-2.823,4.536-2.823
		c2.508,0,3.955,1.038,3.955,3.354v5.597c0,0.555,0.17,0.795,0.748,0.795c0.338,0,0.628-0.337,0.869-0.867l0.844,0.506
		c-0.578,1.352-1.398,1.906-2.484,1.906c-1.014,0-1.979-0.58-1.979-1.93h-0.12c-0.604,1.182-2.123,1.978-3.546,1.978
		C85.549,27.007,84.367,25.824,84.367,24.16z M90.977,23.244v-1.906c-0.217,0.096-0.482,0.145-1.085,0.241
		c-2.341,0.362-3.063,0.651-3.063,2.099c0,1.062,0.555,1.785,1.785,1.785C89.699,25.463,90.977,24.521,90.977,23.244z"/>
	<path fill="#333333" d="M97.709,25.922c-1.062-1.062-1.568-2.678-1.568-4.391c0-1.786,0.627-3.619,1.664-4.657
		c0.797-0.796,1.81-1.23,3.016-1.23c1.617,0,2.678,0.796,3.377,1.93V12.05h-1.833v-1.737h4.102v14.981h1.616v1.593h-3.836v-2.268
		c-0.82,1.664-2.146,2.484-3.619,2.484C99.494,27.104,98.432,26.645,97.709,25.922z M104.246,21.338
		c0-2.195-0.868-4.174-2.822-4.174c-1.762,0-2.774,1.544-2.774,4.174c0,2.726,1.278,4.246,2.774,4.246
		C102.871,25.584,104.246,24.039,104.246,21.338z"/>
	<path fill="#333333" d="M109.506,24.16c0-0.771,0.241-1.447,0.82-2.026c0.893-0.893,2.099-1.183,4.102-1.472
		c1.423-0.217,1.688-0.241,1.688-0.675v-1.134c0-1.423-0.675-1.954-2.195-1.954c-0.723,0-1.277,0.145-1.857,0.458
		c0.41,0.193,0.7,0.675,0.7,1.182c0,0.724-0.507,1.351-1.399,1.351c-0.941,0-1.472-0.7-1.472-1.399c0-1.761,2.051-2.823,4.536-2.823
		c2.508,0,3.955,1.038,3.955,3.354v5.597c0,0.555,0.17,0.795,0.748,0.795c0.338,0,0.628-0.337,0.869-0.867l0.844,0.506
		c-0.578,1.352-1.398,1.906-2.484,1.906c-1.014,0-1.979-0.58-1.979-1.93h-0.12c-0.604,1.182-2.123,1.978-3.546,1.978
		C110.687,27.007,109.506,25.824,109.506,24.16z M116.115,23.244v-1.906c-0.217,0.096-0.482,0.145-1.085,0.241
		c-2.341,0.362-3.063,0.651-3.063,2.099c0,1.062,0.555,1.785,1.785,1.785C114.838,25.463,116.115,24.521,116.115,23.244z"/>
	<path fill="#333333" d="M123.498,28.84c0,0.266-0.096,0.604-0.168,0.748c0.916-0.217,1.543-0.699,2.315-2.75l-3.812-9.408h-1.544
		v-1.592h5.838v1.592h-1.882l2.582,6.947l2.726-6.947h-1.544v-1.592h4.656v1.592h-1.424l-3.836,9.191
		c-1.447,3.426-2.871,4.294-4.535,4.294c-1.424,0-2.316-0.748-2.316-1.905c0-0.82,0.652-1.568,1.521-1.568
		C122.968,27.441,123.498,28.141,123.498,28.84z"/>
</g>
</svg>
